<?xml version="1.0" encoding="utf-8"?>
<!-- Generator: Adobe Illustrator 25.4.1, SVG Export Plug-In . SVG Version: 6.00 Build 0)  -->
<svg version="1.1" id="Layer_1" xmlns="http://www.w3.org/2000/svg" xmlns:xlink="http://www.w3.org/1999/xlink" x="0px" y="0px"
	 viewBox="0 0 10.88 10.21" style="enable-background:new 0 0 10.88 10.21;" xml:space="preserve">
<style type="text/css">
	.st0{fill:#231F20;}
</style>
<path class="st0" d="M6.59,1.04H0.56c-0.22,0-0.4-0.18-0.4-0.4v0c0-0.22,0.18-0.4,0.4-0.4h6.03c0.22,0,0.4,0.18,0.4,0.4v0
	C6.99,0.86,6.81,1.04,6.59,1.04z"/>
<path class="st0" d="M5.83,4.13H1.36c-0.22,0-0.4-0.18-0.4-0.4V3.59c0-0.22,0.18-0.4,0.4-0.4l4.47,0c0.22,0,0.4,0.18,0.4,0.4v0.14
	C6.23,3.95,6.05,4.13,5.83,4.13z"/>
<path class="st0" d="M5.08,7.09H2.17c-0.22,0-0.4-0.18-0.4-0.4v0c0-0.22,0.18-0.4,0.4-0.4h2.91c0.22,0,0.4,0.18,0.4,0.4v0
	C5.48,6.91,5.3,7.09,5.08,7.09z"/>
<path class="st0" d="M4.41,10.08H2.84c-0.22,0-0.4-0.18-0.4-0.4v0c0-0.22,0.18-0.4,0.4-0.4h1.57c0.22,0,0.4,0.18,0.4,0.4v0
	C4.81,9.9,4.63,10.08,4.41,10.08z"/>
<path class="st0" d="M8.5,8.77V0.57c0,0,0.3-0.56,0.72,0v8.19l0.87-0.87c0,0,0.85-0.31,0.55,0.55L9.13,9.97c0,0-0.35,0.2-0.49,0
	L7.03,8.36c0,0-0.17-0.71,0.49-0.49L8.5,8.77z"/>
</svg>
